<mxfile host="app.diagrams.net" agent="Mozilla/5.0 (Windows NT 10.0; Win64; x64) AppleWebKit/537.36 (KHTML, like Gecko) Chrome/128.0.0.0 YaBrowser/24.10.0.0 Safari/537.36" version="24.8.4">
  <diagram id="C5RBs43oDa-KdzZeNtuy" name="Page-1">
    <mxGraphModel dx="1040" dy="599" grid="1" gridSize="10" guides="1" tooltips="1" connect="1" arrows="1" fold="1" page="1" pageScale="1" pageWidth="827" pageHeight="1169" math="0" shadow="0">
      <root>
        <mxCell id="WIyWlLk6GJQsqaUBKTNV-0" />
        <mxCell id="WIyWlLk6GJQsqaUBKTNV-1" parent="WIyWlLk6GJQsqaUBKTNV-0" />
        <mxCell id="WIyWlLk6GJQsqaUBKTNV-3" value="Начало" style="rounded=1;whiteSpace=wrap;html=1;fontSize=12;glass=0;strokeWidth=1;shadow=0;" parent="WIyWlLk6GJQsqaUBKTNV-1" vertex="1">
          <mxGeometry x="370" y="20" width="120" height="40" as="geometry" />
        </mxCell>
        <mxCell id="v5UbnTLlfNjr8Z1qmk2X-4" value="" style="edgeStyle=orthogonalEdgeStyle;rounded=0;orthogonalLoop=1;jettySize=auto;html=1;" edge="1" parent="WIyWlLk6GJQsqaUBKTNV-1" source="v5UbnTLlfNjr8Z1qmk2X-0" target="v5UbnTLlfNjr8Z1qmk2X-3">
          <mxGeometry relative="1" as="geometry" />
        </mxCell>
        <mxCell id="v5UbnTLlfNjr8Z1qmk2X-0" value="нажатие на поле &quot;логин&quot;" style="rounded=0;whiteSpace=wrap;html=1;" vertex="1" parent="WIyWlLk6GJQsqaUBKTNV-1">
          <mxGeometry x="360" y="90" width="140" height="60" as="geometry" />
        </mxCell>
        <mxCell id="v5UbnTLlfNjr8Z1qmk2X-2" value="" style="endArrow=classic;html=1;rounded=0;exitX=0.5;exitY=1;exitDx=0;exitDy=0;entryX=0.5;entryY=0;entryDx=0;entryDy=0;" edge="1" parent="WIyWlLk6GJQsqaUBKTNV-1" source="WIyWlLk6GJQsqaUBKTNV-3" target="v5UbnTLlfNjr8Z1qmk2X-0">
          <mxGeometry width="50" height="50" relative="1" as="geometry">
            <mxPoint x="390" y="280" as="sourcePoint" />
            <mxPoint x="390" y="340" as="targetPoint" />
          </mxGeometry>
        </mxCell>
        <mxCell id="v5UbnTLlfNjr8Z1qmk2X-6" value="" style="edgeStyle=orthogonalEdgeStyle;rounded=0;orthogonalLoop=1;jettySize=auto;html=1;" edge="1" parent="WIyWlLk6GJQsqaUBKTNV-1" source="v5UbnTLlfNjr8Z1qmk2X-3" target="v5UbnTLlfNjr8Z1qmk2X-5">
          <mxGeometry relative="1" as="geometry" />
        </mxCell>
        <mxCell id="v5UbnTLlfNjr8Z1qmk2X-3" value="ввод E-mail" style="whiteSpace=wrap;html=1;rounded=0;" vertex="1" parent="WIyWlLk6GJQsqaUBKTNV-1">
          <mxGeometry x="370" y="170" width="120" height="40" as="geometry" />
        </mxCell>
        <mxCell id="v5UbnTLlfNjr8Z1qmk2X-8" value="" style="edgeStyle=orthogonalEdgeStyle;rounded=0;orthogonalLoop=1;jettySize=auto;html=1;" edge="1" parent="WIyWlLk6GJQsqaUBKTNV-1" source="v5UbnTLlfNjr8Z1qmk2X-5" target="v5UbnTLlfNjr8Z1qmk2X-7">
          <mxGeometry relative="1" as="geometry" />
        </mxCell>
        <mxCell id="v5UbnTLlfNjr8Z1qmk2X-5" value="логин вводится корректно?" style="rhombus;whiteSpace=wrap;html=1;rounded=0;" vertex="1" parent="WIyWlLk6GJQsqaUBKTNV-1">
          <mxGeometry x="325" y="230" width="210" height="50" as="geometry" />
        </mxCell>
        <mxCell id="v5UbnTLlfNjr8Z1qmk2X-24" value="" style="edgeStyle=orthogonalEdgeStyle;rounded=0;orthogonalLoop=1;jettySize=auto;html=1;" edge="1" parent="WIyWlLk6GJQsqaUBKTNV-1" source="v5UbnTLlfNjr8Z1qmk2X-7">
          <mxGeometry relative="1" as="geometry">
            <mxPoint x="370" y="190" as="targetPoint" />
            <Array as="points">
              <mxPoint x="140" y="190" />
            </Array>
          </mxGeometry>
        </mxCell>
        <mxCell id="v5UbnTLlfNjr8Z1qmk2X-7" value="красная рамка.&lt;div&gt;Сообщение: поле&quot;Логин&quot; должно содержать корректный адресэлектронной почты&lt;/div&gt;" style="whiteSpace=wrap;html=1;rounded=0;" vertex="1" parent="WIyWlLk6GJQsqaUBKTNV-1">
          <mxGeometry x="80" y="225" width="120" height="115" as="geometry" />
        </mxCell>
        <mxCell id="v5UbnTLlfNjr8Z1qmk2X-9" value="нет" style="text;html=1;align=center;verticalAlign=middle;whiteSpace=wrap;rounded=0;" vertex="1" parent="WIyWlLk6GJQsqaUBKTNV-1">
          <mxGeometry x="240" y="225" width="60" height="30" as="geometry" />
        </mxCell>
        <mxCell id="v5UbnTLlfNjr8Z1qmk2X-11" value="" style="endArrow=classic;html=1;rounded=0;" edge="1" parent="WIyWlLk6GJQsqaUBKTNV-1" target="v5UbnTLlfNjr8Z1qmk2X-13">
          <mxGeometry width="50" height="50" relative="1" as="geometry">
            <mxPoint x="430" y="280" as="sourcePoint" />
            <mxPoint x="430" y="350" as="targetPoint" />
            <Array as="points">
              <mxPoint x="430" y="280" />
            </Array>
          </mxGeometry>
        </mxCell>
        <mxCell id="v5UbnTLlfNjr8Z1qmk2X-16" value="" style="edgeStyle=orthogonalEdgeStyle;rounded=0;orthogonalLoop=1;jettySize=auto;html=1;" edge="1" parent="WIyWlLk6GJQsqaUBKTNV-1" source="v5UbnTLlfNjr8Z1qmk2X-13" target="v5UbnTLlfNjr8Z1qmk2X-15">
          <mxGeometry relative="1" as="geometry" />
        </mxCell>
        <mxCell id="v5UbnTLlfNjr8Z1qmk2X-13" value="Переход на поле &quot;Пароль&quot;" style="rounded=0;whiteSpace=wrap;html=1;" vertex="1" parent="WIyWlLk6GJQsqaUBKTNV-1">
          <mxGeometry x="370" y="320" width="120" height="60" as="geometry" />
        </mxCell>
        <mxCell id="v5UbnTLlfNjr8Z1qmk2X-14" value="да" style="text;html=1;align=center;verticalAlign=middle;whiteSpace=wrap;rounded=0;rotation=270;" vertex="1" parent="WIyWlLk6GJQsqaUBKTNV-1">
          <mxGeometry x="370" y="280" width="60" height="30" as="geometry" />
        </mxCell>
        <mxCell id="v5UbnTLlfNjr8Z1qmk2X-18" value="" style="edgeStyle=orthogonalEdgeStyle;rounded=0;orthogonalLoop=1;jettySize=auto;html=1;" edge="1" parent="WIyWlLk6GJQsqaUBKTNV-1" source="v5UbnTLlfNjr8Z1qmk2X-15" target="v5UbnTLlfNjr8Z1qmk2X-17">
          <mxGeometry relative="1" as="geometry" />
        </mxCell>
        <mxCell id="v5UbnTLlfNjr8Z1qmk2X-15" value="Ввод пароля" style="whiteSpace=wrap;html=1;rounded=0;" vertex="1" parent="WIyWlLk6GJQsqaUBKTNV-1">
          <mxGeometry x="370" y="410" width="120" height="40" as="geometry" />
        </mxCell>
        <mxCell id="v5UbnTLlfNjr8Z1qmk2X-20" value="" style="edgeStyle=orthogonalEdgeStyle;rounded=0;orthogonalLoop=1;jettySize=auto;html=1;" edge="1" parent="WIyWlLk6GJQsqaUBKTNV-1" source="v5UbnTLlfNjr8Z1qmk2X-17" target="v5UbnTLlfNjr8Z1qmk2X-19">
          <mxGeometry relative="1" as="geometry" />
        </mxCell>
        <mxCell id="v5UbnTLlfNjr8Z1qmk2X-29" value="" style="edgeStyle=orthogonalEdgeStyle;rounded=0;orthogonalLoop=1;jettySize=auto;html=1;" edge="1" parent="WIyWlLk6GJQsqaUBKTNV-1" source="v5UbnTLlfNjr8Z1qmk2X-17" target="v5UbnTLlfNjr8Z1qmk2X-28">
          <mxGeometry relative="1" as="geometry" />
        </mxCell>
        <mxCell id="v5UbnTLlfNjr8Z1qmk2X-17" value="пароль введен корректно?" style="rhombus;whiteSpace=wrap;html=1;rounded=0;" vertex="1" parent="WIyWlLk6GJQsqaUBKTNV-1">
          <mxGeometry x="350" y="470" width="160" height="80" as="geometry" />
        </mxCell>
        <mxCell id="v5UbnTLlfNjr8Z1qmk2X-19" value="Поле подствечивается красным.Появляется подсказка&amp;nbsp;" style="whiteSpace=wrap;html=1;rounded=0;" vertex="1" parent="WIyWlLk6GJQsqaUBKTNV-1">
          <mxGeometry x="130" y="480" width="120" height="60" as="geometry" />
        </mxCell>
        <mxCell id="v5UbnTLlfNjr8Z1qmk2X-22" value="нет" style="text;html=1;align=center;verticalAlign=middle;whiteSpace=wrap;rounded=0;" vertex="1" parent="WIyWlLk6GJQsqaUBKTNV-1">
          <mxGeometry x="280" y="480" width="60" height="30" as="geometry" />
        </mxCell>
        <mxCell id="v5UbnTLlfNjr8Z1qmk2X-27" style="edgeStyle=orthogonalEdgeStyle;rounded=0;orthogonalLoop=1;jettySize=auto;html=1;entryX=0;entryY=0.75;entryDx=0;entryDy=0;exitX=0.658;exitY=0.008;exitDx=0;exitDy=0;exitPerimeter=0;" edge="1" parent="WIyWlLk6GJQsqaUBKTNV-1" source="v5UbnTLlfNjr8Z1qmk2X-19">
          <mxGeometry relative="1" as="geometry">
            <mxPoint x="208" y="491" as="sourcePoint" />
            <mxPoint x="370" y="430" as="targetPoint" />
            <Array as="points">
              <mxPoint x="208" y="430" />
            </Array>
          </mxGeometry>
        </mxCell>
        <mxCell id="v5UbnTLlfNjr8Z1qmk2X-33" value="" style="edgeStyle=orthogonalEdgeStyle;rounded=0;orthogonalLoop=1;jettySize=auto;html=1;" edge="1" parent="WIyWlLk6GJQsqaUBKTNV-1" source="v5UbnTLlfNjr8Z1qmk2X-28" target="v5UbnTLlfNjr8Z1qmk2X-32">
          <mxGeometry relative="1" as="geometry" />
        </mxCell>
        <mxCell id="v5UbnTLlfNjr8Z1qmk2X-28" value="Переход на поле &quot;Повторить пароль&quot;" style="whiteSpace=wrap;html=1;rounded=0;" vertex="1" parent="WIyWlLk6GJQsqaUBKTNV-1">
          <mxGeometry x="370" y="584.5" width="120" height="60" as="geometry" />
        </mxCell>
        <mxCell id="v5UbnTLlfNjr8Z1qmk2X-30" value="Да" style="text;html=1;align=center;verticalAlign=middle;whiteSpace=wrap;rounded=0;rotation=270;" vertex="1" parent="WIyWlLk6GJQsqaUBKTNV-1">
          <mxGeometry x="390" y="550" width="60" height="30" as="geometry" />
        </mxCell>
        <mxCell id="v5UbnTLlfNjr8Z1qmk2X-35" value="" style="edgeStyle=orthogonalEdgeStyle;rounded=0;orthogonalLoop=1;jettySize=auto;html=1;" edge="1" parent="WIyWlLk6GJQsqaUBKTNV-1" source="v5UbnTLlfNjr8Z1qmk2X-32" target="v5UbnTLlfNjr8Z1qmk2X-34">
          <mxGeometry relative="1" as="geometry" />
        </mxCell>
        <mxCell id="v5UbnTLlfNjr8Z1qmk2X-32" value="Ввод повторного пароля" style="whiteSpace=wrap;html=1;rounded=0;" vertex="1" parent="WIyWlLk6GJQsqaUBKTNV-1">
          <mxGeometry x="370" y="663" width="120" height="60" as="geometry" />
        </mxCell>
        <mxCell id="v5UbnTLlfNjr8Z1qmk2X-37" value="" style="edgeStyle=orthogonalEdgeStyle;rounded=0;orthogonalLoop=1;jettySize=auto;html=1;" edge="1" parent="WIyWlLk6GJQsqaUBKTNV-1" source="v5UbnTLlfNjr8Z1qmk2X-34" target="v5UbnTLlfNjr8Z1qmk2X-36">
          <mxGeometry relative="1" as="geometry" />
        </mxCell>
        <mxCell id="v5UbnTLlfNjr8Z1qmk2X-43" value="" style="edgeStyle=orthogonalEdgeStyle;rounded=0;orthogonalLoop=1;jettySize=auto;html=1;" edge="1" parent="WIyWlLk6GJQsqaUBKTNV-1" source="v5UbnTLlfNjr8Z1qmk2X-34" target="v5UbnTLlfNjr8Z1qmk2X-42">
          <mxGeometry relative="1" as="geometry" />
        </mxCell>
        <mxCell id="v5UbnTLlfNjr8Z1qmk2X-34" value="Повторный пароль соответствует изначальному?" style="rhombus;whiteSpace=wrap;html=1;rounded=0;" vertex="1" parent="WIyWlLk6GJQsqaUBKTNV-1">
          <mxGeometry x="340" y="740" width="180" height="80" as="geometry" />
        </mxCell>
        <mxCell id="v5UbnTLlfNjr8Z1qmk2X-46" value="" style="edgeStyle=orthogonalEdgeStyle;rounded=0;orthogonalLoop=1;jettySize=auto;html=1;" edge="1" parent="WIyWlLk6GJQsqaUBKTNV-1" source="v5UbnTLlfNjr8Z1qmk2X-36">
          <mxGeometry relative="1" as="geometry">
            <mxPoint x="370" y="690" as="targetPoint" />
            <Array as="points">
              <mxPoint x="190" y="680" />
              <mxPoint x="340" y="680" />
              <mxPoint x="340" y="690" />
            </Array>
          </mxGeometry>
        </mxCell>
        <mxCell id="v5UbnTLlfNjr8Z1qmk2X-36" value="Поле подсвечивается красным. Появляется подсказка о правильном заполнении поля" style="whiteSpace=wrap;html=1;rounded=0;" vertex="1" parent="WIyWlLk6GJQsqaUBKTNV-1">
          <mxGeometry x="120" y="725" width="130" height="110" as="geometry" />
        </mxCell>
        <mxCell id="v5UbnTLlfNjr8Z1qmk2X-38" value="Нет" style="text;html=1;align=center;verticalAlign=middle;whiteSpace=wrap;rounded=0;" vertex="1" parent="WIyWlLk6GJQsqaUBKTNV-1">
          <mxGeometry x="290" y="750" width="60" height="30" as="geometry" />
        </mxCell>
        <mxCell id="v5UbnTLlfNjr8Z1qmk2X-59" value="" style="edgeStyle=orthogonalEdgeStyle;rounded=0;orthogonalLoop=1;jettySize=auto;html=1;" edge="1" parent="WIyWlLk6GJQsqaUBKTNV-1" source="v5UbnTLlfNjr8Z1qmk2X-42" target="v5UbnTLlfNjr8Z1qmk2X-51">
          <mxGeometry relative="1" as="geometry" />
        </mxCell>
        <mxCell id="v5UbnTLlfNjr8Z1qmk2X-42" value="Нажать кнопку &quot;Регистрация&quot;" style="whiteSpace=wrap;html=1;rounded=0;" vertex="1" parent="WIyWlLk6GJQsqaUBKTNV-1">
          <mxGeometry x="370" y="850" width="120" height="50" as="geometry" />
        </mxCell>
        <mxCell id="v5UbnTLlfNjr8Z1qmk2X-44" value="Да" style="text;html=1;align=center;verticalAlign=middle;whiteSpace=wrap;rounded=0;rotation=270;" vertex="1" parent="WIyWlLk6GJQsqaUBKTNV-1">
          <mxGeometry x="390" y="820" width="60" height="30" as="geometry" />
        </mxCell>
        <mxCell id="v5UbnTLlfNjr8Z1qmk2X-51" value="Конец" style="rounded=1;whiteSpace=wrap;html=1;" vertex="1" parent="WIyWlLk6GJQsqaUBKTNV-1">
          <mxGeometry x="370" y="950" width="120" height="60" as="geometry" />
        </mxCell>
        <mxCell id="v5UbnTLlfNjr8Z1qmk2X-54" value="Повторить действие" style="text;html=1;align=center;verticalAlign=middle;resizable=0;points=[];autosize=1;strokeColor=none;fillColor=none;" vertex="1" parent="WIyWlLk6GJQsqaUBKTNV-1">
          <mxGeometry x="200" y="650" width="140" height="30" as="geometry" />
        </mxCell>
        <mxCell id="v5UbnTLlfNjr8Z1qmk2X-55" value="Повторить действие" style="text;html=1;align=center;verticalAlign=middle;whiteSpace=wrap;rounded=0;" vertex="1" parent="WIyWlLk6GJQsqaUBKTNV-1">
          <mxGeometry x="220" y="400" width="130" height="30" as="geometry" />
        </mxCell>
      </root>
    </mxGraphModel>
  </diagram>
</mxfile>
